# xmcd CD database file
#
# Track frame offsets:
#	150
#	12154
#	28155
#	41294
#	52863
#	62120
#	73317
#	89322
#	104095
#	113564
#	127469
#	139241
#	152863
#	163956
#	176221
#	187761
#	199642
#	213200
#
# Disc length: 3008 seconds
#
# Revision: 0
# Processed by: cddbd v1.5.2PL0 Copyright (c) Steve Scherf et al.
# Submitted via: CDex 1.51
#
DISCID=080bbe12
DTITLE=Edu The Entertainers - You Win Again
DYEAR=1900
DGENRE=Country
TTITLE0=You Win Again
TTITLE1=Storms Never Last
TTITLE2=Crazy Arms
TTITLE3=Send Me The Pillow
TTITLE4=Just Call Me Lonesome
TTITLE5=Take Your Memory With You
TTITLE6=I'm In Love Again
TTITLE7=Release Me
TTITLE8=Tennessee Waltz
TTITLE9=Help Me Make It
TTITLE10=Blue Eyes Crying In The Rain
TTITLE11=Hey Good Looking
TTITLE12=I Can't Help It
TTITLE13=Take These Chains From My Heart
TTITLE14=A Fool Such As I
TTITLE15=Together Again
TTITLE16=Heartache By The Number
TTITLE17=You're My Best Friend
EXTD=
EXTT0=
EXTT1=
EXTT2=
EXTT3=
EXTT4=
EXTT5=
EXTT6=
EXTT7=
EXTT8=
EXTT9=
EXTT10=
EXTT11=
EXTT12=
EXTT13=
EXTT14=
EXTT15=
EXTT16=
EXTT17=
PLAYORDER=
